<svg xmlns="http://www.w3.org/2000/svg" width="66" height="22" viewBox="0 0 66 22"><g><g><g><g><path d="M3.797 7.603h1.312c.509 0 .841.083.996.25.155.165.233.514.233 1.046 0 .52-.078.863-.233 1.03-.155.165-.481.249-.98.249H3.797zm0-4.268h1.245c.432 0 .717.066.855.199.139.133.208.421.208.864s-.066.736-.2.88c-.132.144-.41.216-.83.216H3.797zM7.45 6.49c.742-.066 1.276-.31 1.603-.73.327-.42.49-1.047.49-1.877 0-1.163-.313-1.952-.938-2.367-.626-.415-1.752-.623-3.38-.623-2.17 0-3.82.045-4.95.133v11.46c1.24.089 3.073.133 5.498.133 1.495 0 2.56-.213 3.197-.64.637-.426.955-1.209.955-2.35 0-.952-.19-1.677-.573-2.175-.382-.498-1.016-.786-1.901-.864v-.1z"/></g><g><path d="M21.302 1.026v6.727c0 1.827-.365 3.111-1.096 3.853-.73.742-1.993 1.113-3.787 1.113-1.938 0-3.3-.371-4.086-1.113-.786-.742-1.18-2.026-1.18-3.853V1.026h3.605v6.727c0 .919.1 1.53.3 1.835.198.305.591.457 1.179.457.575 0 .963-.152 1.162-.457.2-.304.3-.916.3-1.835V1.026z"/></g><g><path d="M26.484 3.401h1.246c.52 0 .866.078 1.038.233.171.155.258.47.258.946s-.087.792-.258.947c-.172.155-.518.233-1.038.233h-1.246zm5.714 5.564c-.21-1.063-.836-1.66-1.877-1.794v-.1c1.55-.154 2.325-1.062 2.325-2.723 0-1.306-.374-2.215-1.121-2.724-.747-.51-1.985-.764-3.712-.764-2.115 0-3.737.055-4.867.166v11.46h3.538V8.301h1.113c.31 0 .534.053.673.158.138.105.24.313.307.622l.747 3.405h3.77z"/></g><g><path d="M43.708 5.893v6.593H41.05l-.315-1.179c-.31.388-.74.72-1.287.997-.549.276-1.177.415-1.886.415-1.34 0-2.308-.457-2.906-1.37-.598-.914-.897-2.445-.897-4.593 0-2.192.404-3.734 1.212-4.625.808-.892 2.204-1.338 4.186-1.338 1.594 0 2.95.161 4.07.482l-.267 2.591a315.981 315.981 0 0 0-3.787-.033c-.642 0-1.074.194-1.295.581-.222.388-.332 1.169-.332 2.342 0 1.152.1 1.921.298 2.309.2.388.588.581 1.163.581.388 0 .803-.033 1.246-.1V5.894z"/></g><g><path d="M53.59 9.796l.166 2.54c-1.107.145-3.095.217-5.963.217-.786 0-1.43-.241-1.935-.723-.503-.481-.755-1.11-.755-1.885V3.567c0-.775.252-1.403.755-1.885.504-.482 1.15-.722 1.935-.722 2.868 0 4.856.072 5.963.216l-.166 2.54h-4.202c-.21 0-.377.056-.498.167a.556.556 0 0 0-.183.432v1.112h4.285V7.82h-4.285v1.379c0 .177.06.321.183.432.121.11.287.166.498.166z"/></g><g><path d="M58.622 3.401h1.246c.52 0 .867.078 1.038.233.172.155.258.47.258.946s-.086.792-.258.947c-.171.155-.517.233-1.038.233h-1.246zm5.714 5.564c-.21-1.063-.836-1.66-1.877-1.794v-.1c1.55-.154 2.325-1.062 2.325-2.723 0-1.306-.373-2.215-1.12-2.724-.748-.51-1.986-.764-3.713-.764-2.115 0-3.737.055-4.866.166v11.46h3.537V8.301h1.113c.31 0 .534.053.673.158.138.105.24.313.307.622l.748 3.405h3.77z"/></g></g><g><g><path d="M22.605 21.032l.09.758c-.447.14-1.018.21-1.712.21-.834 0-1.42-.215-1.76-.646-.338-.43-.507-1.175-.507-2.235 0-1.06.169-1.805.508-2.236.339-.43.925-.645 1.76-.645.618 0 1.15.059 1.597.177l-.097.767a18.763 18.763 0 0 0-1.5-.057c-.464 0-.78.142-.95.424-.168.282-.253.806-.253 1.57s.085 1.287.254 1.57c.17.282.485.423.948.423.683 0 1.224-.027 1.622-.08z"/></g><g><path d="M28.618 21.903h-1.009v-5.569h1.009z"/></g><g><path d="M37.883 17.198h-1.72v4.705h-1.016v-4.705h-1.703v-.864h4.439z"/></g><g><path d="M44.97 20.023v1.88h-1.01v-1.896l-1.832-3.673h1.065l1.017 2.163c.038.087.113.31.226.67h.065a9.32 9.32 0 0 1 .226-.67l1.017-2.163h1.049z"/></g></g></g></g></svg>