<svg xmlns="http://www.w3.org/2000/svg" width="20" height="21" viewBox="0 0 20 21"><g><g><g><path fill="#717c8e" d="M18.071 4.75V7.29H1.9V4.75a.764.764 0 0 1 .808-.831h1.438v.494c0 .494.472.853.966.853h1.325a.831.831 0 0 0 .853-.853V3.92h5.39v.494a.831.831 0 0 0 .854.853h1.325c.495 0 .966-.359.966-.853V3.92h1.438a.764.764 0 0 1 .808.83zm0 12.983c0 .494-.314 1.01-.808 1.01H2.708c-.494 0-.808-.516-.808-1.01V8.187H18.07zM5.111 1.898h1.281V4.37h-1.28zm8.423 0h1.393V4.37h-1.393zm3.843 1.124a1.658 1.658 0 0 0-.114 0h-1.438V1.785c0-.494-.471-.786-.966-.786h-1.325c-.494 0-.853.292-.853.786v1.235H7.29V1.786c0-.494-.36-.786-.854-.786H5.112c-.494 0-.966.292-.966.786v1.235H2.708a1.662 1.662 0 0 0-1.707 1.73v12.982c0 .988.72 1.909 1.707 1.909h14.555c.988 0 1.707-.92 1.707-1.91V4.752a1.662 1.662 0 0 0-1.593-1.729z"/><path fill="none" stroke="#717c8e" stroke-miterlimit="50" stroke-width=".3" d="M18.071 4.75V7.29H1.9V4.75a.764.764 0 0 1 .808-.831h1.438v.494c0 .494.472.853.966.853h1.325a.831.831 0 0 0 .853-.853V3.92h5.39v.494a.831.831 0 0 0 .854.853h1.325c.495 0 .966-.359.966-.853V3.92h1.438a.764.764 0 0 1 .808.83zm0 12.983c0 .494-.314 1.01-.808 1.01H2.708c-.494 0-.808-.516-.808-1.01V8.187H18.07zM5.111 1.898h1.281V4.37h-1.28zm8.423 0h1.393V4.37h-1.393zm3.843 1.124a1.658 1.658 0 0 0-.114 0h-1.438V1.785c0-.494-.471-.786-.966-.786h-1.325c-.494 0-.853.292-.853.786v1.235H7.29V1.786c0-.494-.36-.786-.854-.786H5.112c-.494 0-.966.292-.966.786v1.235H2.708a1.662 1.662 0 0 0-1.707 1.73v12.982c0 .988.72 1.909 1.707 1.909h14.555c.988 0 1.707-.92 1.707-1.91V4.752a1.662 1.662 0 0 0-1.593-1.729z"/></g><g><path fill="#717c8e" d="M8.728 12.5a.404.404 0 0 0 .314-.247l.719-1.438.719 1.438a.404.404 0 0 0 .314.247l1.595.224-1.146 1.1a.472.472 0 0 0-.135.405l.27 1.595-1.415-.764-.202-.045-.202.045-1.415.764.27-1.595a.472.472 0 0 0-.135-.404l-1.146-1.1zm-1.236 1.819l-.404 2.246a.45.45 0 0 0 .652.472l2.02-1.056 2.022 1.056.202.044a.427.427 0 0 0 .27-.09.45.45 0 0 0 .18-.426l-.405-2.246 1.64-1.572a.494.494 0 0 0 .112-.472.472.472 0 0 0-.36-.292l-2.245-.337-1.01-2.044a.449.449 0 0 0-.81 0l-1.01 2.044-2.246.337a.472.472 0 0 0-.36.292.494.494 0 0 0 .113.472z"/><path fill="none" stroke="#717c8e" stroke-miterlimit="50" stroke-width=".3" d="M8.728 12.5a.404.404 0 0 0 .314-.247l.719-1.438.719 1.438a.404.404 0 0 0 .314.247l1.595.224-1.146 1.1a.472.472 0 0 0-.135.405l.27 1.595-1.415-.764-.202-.045-.202.045-1.415.764.27-1.595a.472.472 0 0 0-.135-.404l-1.146-1.1zm-1.236 1.819l-.404 2.246a.45.45 0 0 0 .652.472l2.02-1.056 2.022 1.056.202.044a.427.427 0 0 0 .27-.09.45.45 0 0 0 .18-.426l-.405-2.246 1.64-1.572a.494.494 0 0 0 .112-.472.472.472 0 0 0-.36-.292l-2.245-.337-1.01-2.044a.449.449 0 0 0-.81 0l-1.01 2.044-2.246.337a.472.472 0 0 0-.36.292.494.494 0 0 0 .113.472z"/></g></g></g></svg>