<svg xmlns="http://www.w3.org/2000/svg" width="21" height="20" viewBox="0 0 21 20">
    <g><g>
        <path fill="#e59413" d="M18.271 7.643h-4.209a.635.635 0 0 0 0 1.27h4.21v2.582H8.76L6.022 5.06h12.25zm-7.2 8.428a.83.83 0 1 1 0 1.66.83.83 0 0 1 0-1.66zm6.151 0a.83.83 0 1 1 0 1.66.83.83 0 0 1 0-1.66zm1.684-12.28H5.482l-.773-1.818a.635.635 0 0 0-.44-.37l-2.49-.586a.635.635 0 1 0-.29 1.236l2.177.513L9.24 15.869A2.102 2.102 0 0 0 11.068 19a2.102 2.102 0 0 0 1.933-2.92h2.287A2.102 2.102 0 0 0 17.22 19c1.158 0 2.1-.942 2.1-2.1 0-1.158-.942-2.1-2.1-2.1l-7.051.01-.87-2.045h9.606c.351 0 .635-.284.635-.635V4.425a.635.635 0 0 0-.635-.635z"/>
        <path fill="none" stroke="#e59413" stroke-miterlimit="50" stroke-width=".3" d="M18.271 7.643h-4.209a.635.635 0 0 0 0 1.27h4.21v2.582H8.76L6.022 5.06h12.25zm-7.2 8.428a.83.83 0 1 1 0 1.66.83.83 0 0 1 0-1.66zm6.151 0a.83.83 0 1 1 0 1.66.83.83 0 0 1 0-1.66zm1.684-12.28H5.482l-.773-1.818a.635.635 0 0 0-.44-.37l-2.49-.586a.635.635 0 1 0-.29 1.236l2.177.513L9.24 15.869A2.102 2.102 0 0 0 11.068 19a2.102 2.102 0 0 0 1.933-2.92h2.287A2.102 2.102 0 0 0 17.22 19c1.158 0 2.1-.942 2.1-2.1 0-1.158-.942-2.1-2.1-2.1l-7.051.01-.87-2.045h9.606c.351 0 .635-.284.635-.635V4.425a.635.635 0 0 0-.635-.635z"/>
    </g></g>
</svg>
