<svg xmlns="http://www.w3.org/2000/svg" width="10" height="7" viewBox="0 0 10 7"><g><g><path d="M3.83 6.092h.001c.094 0 .179-.04.24-.102l4.777-4.926h-.001a.333.333 0 1 0-.493-.447L3.83 5.288 2.063 3.522a.332.332 0 0 0-.47.47L3.59 5.99c.06.062.145.101.24.101z"/><path fill="none" stroke="#000" stroke-linecap="round" stroke-linejoin="round" stroke-miterlimit="50" d="M3.83 6.092h.001c.094 0 .179-.04.24-.102h0v0l4.777-4.926v0h-.001a.333.333 0 1 0-.493-.447L3.83 5.288v0L2.063 3.522v0h0a.332.332 0 0 0-.47.47h0v0L3.59 5.99v0h0c.06.062.145.101.24.101 0 0 0 0 0 0z"/></g></g></svg>