<svg xmlns="http://www.w3.org/2000/svg" width="25" height="24" viewBox="0 0 25 24"><g><g><path fill="#727c8e" d="M11.605 20.961L6.55 23.618c-1.231.648-2.67-.398-2.435-1.769l.965-5.628a1.678 1.678 0 0 0-.482-1.485L.508 10.75c-.996-.971-.446-2.663.931-2.863l5.65-.821a1.678 1.678 0 0 0 1.264-.918l2.528-5.12c.615-1.248 2.394-1.248 3.01 0l2.527 5.12c.244.495.717.838 1.263.918l5.651.82c1.377.201 1.927 1.893.93 2.864l-4.088 3.986a1.678 1.678 0 0 0-.483 1.485l.965 5.628c.235 1.371-1.204 2.417-2.435 1.77l-5.055-2.658a1.678 1.678 0 0 0-1.561 0z"/></g></g></svg>