<svg xmlns="http://www.w3.org/2000/svg" width="36" height="26" viewBox="0 0 36 26"><g><g><g><path fill="#727c8e" d="M28.524 17.07a.48.48 0 0 1-.48.48H15.82a.48.48 0 0 1-.48-.48v-.267a.48.48 0 0 1 .48-.48h12.225a.48.48 0 0 1 .48.48zm0 2.844c0 .618-.505 1.124-1.124 1.124H16.464a1.127 1.127 0 0 1-1.123-1.124v-.627c0-.618.505-1.124 1.123-1.124H27.4c.619 0 1.124.506 1.124 1.124zM15.5 13.69c1.001-2.577 3.512-4.417 6.432-4.417 2.92 0 5.431 1.84 6.433 4.417a1.486 1.486 0 0 1-1.387 2.021h-10.09a1.486 1.486 0 0 1-1.388-2.02zM8.63 6.406v16.06a2.885 2.885 0 0 0 2.876 2.876h20.853a2.885 2.885 0 0 0 2.877-2.876V6.406z"/></g><g><path fill="#727c8e" d="M35.715 4.81V3.072a2.989 2.989 0 0 0-2.98-2.98H11.13a2.989 2.989 0 0 0-2.98 2.98V4.81z"/></g><g><path fill="#727c8e" d="M0 6.406h7.43v2.237"/></g><g><path fill="#727c8e" d="M2.972 10.32h4.459v2.238"/></g><g><path fill="#727c8e" d="M5.053 14.236H7.43v2.237"/></g></g></g></svg>